<svg width="28" height="28" viewBox="0 0 28 28" fill="none" xmlns="http://www.w3.org/2000/svg">
<g clip-path="url(#clip0_37_228)">
<path d="M23.9527 18.8777C23.7844 18.8492 23.6147 18.8299 23.4443 18.82C22.8013 18.785 22.1938 18.5141 21.7381 18.0592L17.6811 14L20.1311 11.55C20.3473 11.327 20.6102 11.1544 20.9008 11.0445C21.1914 10.9347 21.5027 10.8904 21.8124 10.9148C23.1486 11.043 24.4831 10.6546 25.5417 9.82933C26.6003 9.00408 27.3026 7.8047 27.5043 6.47767C27.6442 5.53614 27.5283 4.57431 27.1687 3.69298C27.1414 3.62634 27.0979 3.5675 27.0423 3.52168C26.9867 3.47586 26.9207 3.44448 26.85 3.43032C26.7794 3.41617 26.7063 3.41968 26.6374 3.44054C26.5684 3.46141 26.5057 3.49898 26.4547 3.54992L24.3189 5.68754H23.3686L22.3125 4.63142V3.68117L24.4501 1.54355C24.5007 1.49258 24.5379 1.42996 24.5585 1.3612C24.5792 1.29244 24.5826 1.21967 24.5684 1.14929C24.5543 1.07891 24.5231 1.01308 24.4775 0.957629C24.4319 0.902173 24.3734 0.858787 24.3071 0.831295C23.6197 0.548851 22.8803 0.415526 22.1376 0.440136C21.395 0.464746 20.666 0.64673 19.9989 0.974056C19.3318 1.30138 18.7418 1.76659 18.2679 2.33892C17.7939 2.91125 17.4469 3.57767 17.2497 4.29411C17.0817 4.90968 17.0264 5.55059 17.0866 6.18586C17.1113 6.4958 17.0671 6.80737 16.957 7.09816C16.8469 7.38896 16.6738 7.65174 16.45 7.86761L14 10.3176L11.55 7.86761C11.3265 7.65164 11.1536 7.38879 11.0438 7.09799C10.934 6.80719 10.8901 6.49567 10.9152 6.18586C10.9739 5.56495 10.9222 4.93855 10.7625 4.33567C10.5149 3.39392 10.0093 2.54001 9.30257 1.87015C8.59583 1.20029 7.71608 0.741091 6.76243 0.544295C5.73335 0.33512 4.66539 0.434975 3.69293 0.831295C3.62629 0.858683 3.56745 0.902105 3.52162 0.957703C3.4758 1.0133 3.44442 1.07936 3.43027 1.15C3.41611 1.22064 3.41962 1.29369 3.44049 1.36265C3.46135 1.43161 3.49892 1.49435 3.54987 1.5453L5.68749 3.68117V4.63142L4.63137 5.68754H3.68112L1.54349 3.54992C1.49253 3.49937 1.4299 3.46213 1.36115 3.44149C1.29239 3.42086 1.21961 3.41746 1.14923 3.4316C1.07885 3.44573 1.01303 3.47697 0.957575 3.52256C0.902119 3.56814 0.858732 3.62667 0.831241 3.69298C0.435331 4.66544 0.336228 5.73334 0.546428 6.76204C0.742692 7.71563 1.20143 8.59543 1.87093 9.30227C2.54043 10.0091 3.39407 10.5149 4.33562 10.7625C4.93853 10.922 5.56492 10.9736 6.1858 10.9148C6.4956 10.8897 6.8071 10.9336 7.09785 11.0435C7.3886 11.1533 7.65134 11.3263 7.86712 11.55L10.3171 14L7.86712 16.45C7.65096 16.6732 7.38816 16.8459 7.09751 16.9557C6.80686 17.0655 6.49554 17.1098 6.1858 17.0853C5.28549 16.9994 4.37825 17.1475 3.55202 17.5154C2.72579 17.8832 2.00859 18.4582 1.46994 19.1847C0.931283 19.9112 0.589438 20.7645 0.477537 21.662C0.365636 22.5594 0.487474 23.4706 0.831241 24.3071C0.858629 24.3737 0.90205 24.4326 0.957649 24.4784C1.01325 24.5242 1.0793 24.5556 1.14994 24.5698C1.22059 24.5839 1.29363 24.5804 1.36259 24.5595C1.43155 24.5387 1.49429 24.5011 1.54524 24.4502L3.68112 22.3125H4.63137L5.68749 23.3687V24.3189L3.54987 26.4565C3.49931 26.5075 3.46207 26.5701 3.44144 26.6389C3.4208 26.7076 3.41741 26.7804 3.43154 26.8508C3.44568 26.9212 3.47692 26.987 3.5225 27.0425C3.56808 27.0979 3.62661 27.1413 3.69293 27.1688C4.32764 27.4292 5.00714 27.5629 5.69318 27.5625C5.9557 27.5624 6.21786 27.5432 6.47762 27.5052C7.80448 27.3037 9.00372 26.6016 9.82878 25.543C10.6538 24.4845 11.042 23.1501 10.9134 21.8142C10.8887 21.5043 10.9329 21.1927 11.043 20.9019C11.1531 20.6111 11.3262 20.3483 11.55 20.1325L14 17.6825L18.0591 21.7416C18.5133 22.1967 18.7842 22.8029 18.8204 23.4448C18.8297 23.6155 18.8488 23.7855 18.8777 23.954C19.0378 24.8421 19.4675 25.6593 20.1083 26.2946C20.7492 26.9299 21.5701 27.3524 22.4595 27.5048C22.7018 27.5437 22.9469 27.563 23.1923 27.5625C23.8281 27.5616 24.456 27.4222 25.0325 27.1541C25.6089 26.8859 26.1201 26.4954 26.5303 26.0097C26.9406 25.524 27.2402 24.9548 27.4082 24.3417C27.5763 23.7285 27.6088 23.0861 27.5034 22.4591C27.3512 21.5697 26.9287 20.7487 26.2934 20.1079C25.6581 19.4671 24.8408 19.0376 23.9527 18.8777ZM8.48749 10.9297C8.18026 10.615 7.80716 10.3722 7.39498 10.2188C6.98281 10.0654 6.54177 10.0052 6.10355 10.0424C5.58526 10.0917 5.06233 10.0484 4.55918 9.91467C3.77575 9.70942 3.06525 9.28936 2.50782 8.70186C1.95039 8.11436 1.56821 7.38279 1.40437 6.58967C1.27603 5.95617 1.28558 5.30246 1.43237 4.67298L3.19243 6.43305C3.27381 6.51515 3.38439 6.56171 3.49999 6.56254H4.81249C4.92851 6.56252 5.03977 6.51641 5.1218 6.43436L6.4343 5.12186C6.51636 5.03983 6.56247 4.92857 6.56249 4.81254V3.50005C6.56247 3.38402 6.51636 3.27276 6.4343 3.19073L4.67468 1.43067C5.30386 1.28389 5.95728 1.27434 6.59049 1.40267C7.38361 1.56651 8.11518 1.9487 8.70268 2.50613C9.29018 3.06356 9.71024 3.77405 9.91549 4.55748C10.0489 5.06055 10.0923 5.58324 10.0437 6.10142C10.0058 6.53971 10.0658 6.98095 10.2191 7.39327C10.3725 7.8056 10.6154 8.17875 10.9305 8.48579L13.3805 10.9358L10.9375 13.3814L8.48749 10.9297ZM10.9301 19.5125C10.6148 19.8195 10.3717 20.1926 10.2183 20.605C10.0649 21.0173 10.0049 21.4586 10.0428 21.8969C10.1491 23.0091 9.82595 24.1198 9.13953 25.0013C8.45312 25.8827 7.45548 26.4682 6.35118 26.6377C5.79294 26.7205 5.22407 26.6967 4.67468 26.5677L6.4343 24.808C6.51604 24.7263 6.56212 24.6156 6.56249 24.5V23.1875C6.56247 23.0715 6.51636 22.9603 6.4343 22.8782L5.1218 21.5657C5.03977 21.4837 4.92851 21.4376 4.81249 21.4375H3.49999C3.38397 21.4376 3.27271 21.4837 3.19068 21.5657L1.43105 23.3254C1.30262 22.7759 1.27887 22.2071 1.36105 21.6489C1.52999 20.5444 2.11537 19.5464 2.997 18.86C3.87862 18.1736 4.98959 17.8507 6.1018 17.9577C6.54012 17.9949 6.98124 17.9346 7.39349 17.7811C7.80575 17.6276 8.1789 17.3848 8.48618 17.07L17.0699 8.48754C17.3851 8.1806 17.6282 7.80748 17.7817 7.39513C17.9351 6.98278 17.9951 6.54151 17.9572 6.10317C17.8505 4.9908 18.1735 3.87978 18.86 2.99801C19.5464 2.11623 20.5443 1.53055 21.6488 1.36111C22.2071 1.27896 22.7758 1.30271 23.3253 1.43111L21.5657 3.19073C21.4836 3.27276 21.4375 3.38402 21.4375 3.50005V4.81254C21.4375 4.92857 21.4836 5.03983 21.5657 5.12186L22.8782 6.43436C22.9602 6.51641 23.0715 6.56252 23.1875 6.56254H24.5C24.616 6.56252 24.7273 6.51641 24.8093 6.43436L26.5689 4.67473C26.6974 5.22421 26.7211 5.79296 26.6389 6.35123C26.4694 7.45545 25.8839 8.45298 25.0024 9.13931C24.1209 9.82563 23.0103 10.1488 21.8982 10.0424C21.4599 10.0052 21.0187 10.0655 20.6065 10.219C20.1942 10.3725 19.8211 10.6153 19.5138 10.9301L10.9301 19.5125ZM25.6624 25.662C25.2104 26.1149 24.6429 26.4351 24.0215 26.588C23.4002 26.7409 22.7489 26.7205 22.1383 26.5291C21.5278 26.3377 20.9814 25.9825 20.5585 25.5023C20.1357 25.0221 19.8526 24.4352 19.74 23.8053C19.7167 23.6691 19.7012 23.5316 19.6936 23.3936C19.6455 22.5372 19.2839 21.7285 18.6777 21.1217L14.6186 17.0625L17.0625 14.6187L21.1216 18.6778C21.7286 19.284 22.5375 19.6456 23.394 19.6937C23.5319 19.7015 23.6692 19.7171 23.8052 19.7405C24.435 19.8531 25.0218 20.1362 25.5019 20.559C25.982 20.9817 26.3371 21.528 26.5285 22.1384C26.72 22.7488 26.7405 23.4 26.5878 24.0212C26.4351 24.6424 26.115 25.2099 25.6624 25.662Z" fill="#0C0C1D"/>
<path d="M24.3718 21.1282C24.2898 21.0461 24.1785 21 24.0625 21H22.3125C22.1965 21 22.0852 21.0461 22.0032 21.1282L21.1282 22.0032C21.0461 22.0852 21 22.1965 21 22.3125V24.0625C21 24.1785 21.0461 24.2898 21.1282 24.3718L22.0032 25.2468C22.0852 25.3289 22.1965 25.375 22.3125 25.375H24.0625C24.1785 25.375 24.2898 25.3289 24.3718 25.2468L25.2468 24.3718C25.3289 24.2898 25.375 24.1785 25.375 24.0625V22.3125C25.375 22.1965 25.3289 22.0852 25.2468 22.0032L24.3718 21.1282ZM24.5 23.8814L23.8814 24.5H22.4936L21.875 23.8814V22.4936L22.4936 21.875H23.8814L24.5 22.4936V23.8814Z" fill="#0C0C1D"/>
</g>
<defs>
<clipPath id="clip0_37_228">
<rect width="28" height="28" fill="white"/>
</clipPath>
</defs>
</svg>
