<svg width="34" height="24" viewBox="0 0 34 24" fill="none" xmlns="http://www.w3.org/2000/svg">
<path d="M31.7333 19.5349H31.1667V17.8605C31.1667 13.6958 29.3091 9.80761 26.0667 7.14503V6.13953C26.0667 4.60084 24.7955 3.34884 23.2333 3.34884H20.4473L20.4 2.7907C20.4 1.252 19.1289 0 17.5667 0H16.4333C14.8711 0 13.6 1.252 13.6022 2.74437L13.5511 3.34884H10.7667C9.20446 3.34884 7.93333 4.60084 7.93333 6.13953V7.14496C4.69077 9.80771 2.83333 13.6957 2.83333 17.8605V19.5349H2.26667C1.01657 19.5349 0 20.5362 0 21.7674C0 22.9987 1.01657 24 2.26667 24H31.7333C32.9834 24 34 22.9987 34 21.7674C34 20.5362 32.9834 19.5349 31.7333 19.5349ZM3.96667 17.8605C3.96667 14.3513 5.40083 11.0562 7.93333 8.6438V12.2791C7.93333 12.5876 8.18678 12.8372 8.5 12.8372C8.81322 12.8372 9.06667 12.5876 9.06667 12.2791V6.13953C9.06667 5.21621 9.82923 4.46512 10.7667 4.46512H13.4566L12.4689 16.1397C12.4429 16.4471 12.6742 16.7164 12.9863 16.742C13.3045 16.7731 13.5718 16.5392 13.5978 16.2324L14.7333 2.7907C14.7333 1.86737 15.4959 1.11628 16.4333 1.11628H17.5667C18.5041 1.11628 19.2667 1.86737 19.2689 2.83703L20.4022 16.2324C20.4266 16.524 20.6745 16.7442 20.9661 16.7442C20.9816 16.7442 20.9977 16.7436 21.0137 16.742C21.3258 16.7164 21.5571 16.4471 21.5311 16.1397L20.5419 4.46512H23.2333C24.1708 4.46512 24.9333 5.21621 24.9333 6.13953V12.2791C24.9333 12.5876 25.1868 12.8372 25.5 12.8372C25.8132 12.8372 26.0667 12.5876 26.0667 12.2791V8.64391C28.599 11.056 30.0333 14.3514 30.0333 17.8605V19.5349H3.96667V17.8605ZM31.7333 22.8837H2.26667C1.64189 22.8837 1.13333 22.3828 1.13333 21.7674C1.13333 21.1521 1.64189 20.6512 2.26667 20.6512H31.7333C32.3581 20.6512 32.8667 21.1521 32.8667 21.7674C32.8667 22.3828 32.3581 22.8837 31.7333 22.8837Z" fill="#0C0C1D"/>
</svg>
