<svg width="32" height="32" viewBox="0 0 32 32" fill="none" xmlns="http://www.w3.org/2000/svg">
<g clip-path="url(#clip0_37_233)">
<path d="M15.3003 3.3569C15.1761 3.02704 14.987 2.72547 14.7441 2.47005C14.5013 2.21463 14.2096 2.01057 13.8864 1.86997C13.1476 1.54262 12.3338 1.42189 11.5317 1.52064C10.8855 1.6234 10.2236 1.49639 9.66132 1.1617C9.53657 1.09226 9.39473 1.05947 9.25216 1.06712C9.10958 1.07476 8.97207 1.12252 8.85545 1.2049C8.74235 1.28168 8.65292 1.38851 8.59724 1.51336C8.54155 1.6382 8.52182 1.77612 8.54025 1.91157C8.90879 4.95157 9.67519 5.89397 10.9595 6.56544C11.4254 6.80876 11.9436 6.93505 12.4693 6.93344C12.8376 6.93323 13.2034 6.87344 13.5525 6.75637C13.9182 6.63571 14.2586 6.44898 14.5568 6.20544C14.9544 6.54698 15.2456 6.9955 15.3957 7.4977C12.9137 7.64905 10.574 8.70772 8.82194 10.4722C7.06986 12.2367 6.02771 14.5838 5.89385 17.0668C5.54553 16.8132 5.1223 16.6836 4.69172 16.6988L4.29545 11.9025C4.27039 11.4612 4.09058 11.0428 3.78761 10.7209C3.48465 10.399 3.07792 10.1942 2.63892 10.1425C2.38391 10.12 2.12701 10.1508 1.88453 10.2328C1.64205 10.3149 1.41929 10.4465 1.23039 10.6193C0.893987 10.9306 0.687032 11.3571 0.650653 11.814L0.00852007 19.9158C-0.0460135 20.593 0.160865 21.2654 0.586653 21.7948L6.04959 28.5489C6.27563 28.8325 6.39913 29.1841 6.39999 29.5468V30.9334C6.39999 31.2163 6.51237 31.4876 6.71241 31.6877C6.91245 31.8877 7.18376 32.0001 7.46665 32.0001H11.7333C12.0162 32.0001 12.2875 31.8877 12.4876 31.6877C12.6876 31.4876 12.8 31.2163 12.8 30.9334V27.2076C14.8757 27.9087 17.1243 27.9087 19.2 27.2076V30.9334C19.2 31.2163 19.3124 31.4876 19.5124 31.6877C19.7124 31.8877 19.9838 32.0001 20.2667 32.0001H24.5333C24.8162 32.0001 25.0875 31.8877 25.2876 31.6877C25.4876 31.4876 25.6 31.2163 25.6 30.9334V29.5468C25.6003 29.1845 25.7233 28.833 25.9488 28.5494L31.4133 21.7926C31.838 21.2636 32.0441 20.592 31.9893 19.9158L31.3493 11.814C31.3127 11.3547 31.1044 10.926 30.7659 10.6134C30.5767 10.4422 30.3543 10.3118 30.1125 10.2305C29.8707 10.1492 29.6147 10.1187 29.3605 10.1409C28.9232 10.1928 28.518 10.3967 28.2157 10.7171C27.9135 11.0374 27.7335 11.4538 27.7072 11.8934L27.3104 16.6934C26.8788 16.6815 26.4553 16.8128 26.1061 17.0668C25.9723 14.5713 24.9208 12.2134 23.1538 10.4463C21.3867 8.67926 19.0288 7.62775 16.5333 7.49397V6.93344C16.551 6.58725 16.6414 6.24866 16.7986 5.93973C16.9559 5.63079 17.1764 5.35843 17.4459 5.14037C17.7434 5.38295 18.0829 5.56895 18.4475 5.68917C18.7967 5.8067 19.1627 5.86669 19.5312 5.86677C20.0561 5.86854 20.5735 5.74261 21.0389 5.49984C22.3243 4.8273 23.0912 3.8865 23.4597 0.844903C23.4784 0.709655 23.459 0.571882 23.4037 0.447053C23.3484 0.322225 23.2594 0.215284 23.1467 0.138236C23.0282 0.05513 22.8885 0.00739766 22.744 0.000599207C22.5994 -0.00619925 22.4559 0.028216 22.3301 0.0998363C21.77 0.431998 21.1112 0.557308 20.4683 0.45397C19.6662 0.354163 18.8521 0.474939 18.1136 0.803303C17.7904 0.943908 17.4987 1.14797 17.2559 1.40338C17.013 1.6588 16.8239 1.96038 16.6997 2.29024C16.5774 2.61322 16.5212 2.9575 16.5345 3.30262C16.5478 3.64774 16.6302 3.98668 16.7771 4.2993L16.7803 4.30464C16.2956 4.71907 15.9172 5.24357 15.6768 5.83424C15.5349 5.66978 15.382 5.51512 15.2192 5.3713L15.2235 5.36437C15.3701 5.05196 15.4524 4.71328 15.4656 4.36843C15.4788 4.02358 15.4226 3.6796 15.3003 3.3569ZM17.7003 2.66357C17.775 2.46664 17.8884 2.28668 18.0339 2.13435C18.1794 1.98201 18.3539 1.86037 18.5472 1.77664C18.9606 1.58635 19.411 1.48966 19.8661 1.49344C20.0453 1.49344 20.2203 1.50517 20.3995 1.5169C21.0501 1.60029 21.7114 1.52151 22.3243 1.28757C21.9659 3.63424 21.3541 4.13077 20.5451 4.5537C20.2755 4.69114 19.981 4.77283 19.6791 4.79391C19.3773 4.81498 19.0743 4.77501 18.7883 4.67637C18.6415 4.6255 18.5007 4.55917 18.368 4.4785C18.5296 4.38533 18.6962 4.30129 18.8672 4.22677C18.9985 4.17408 19.1035 4.07138 19.1592 3.94125C19.2148 3.81113 19.2164 3.66424 19.1637 3.5329C19.111 3.40157 19.0083 3.29654 18.8782 3.24093C18.7481 3.18532 18.6012 3.18368 18.4699 3.23637C18.1952 3.35336 17.9296 3.49044 17.6752 3.6465C17.5737 3.32646 17.5818 2.98171 17.6981 2.66677L17.7003 2.66357ZM8.54239 12.4561L9.81172 14.1478C10.0194 14.4248 10.1317 14.7616 10.1317 15.1078V16.8892C10.1317 17.2354 10.0194 17.5722 9.81172 17.8492L9.06665 18.8444C8.80665 19.1924 8.63549 19.5987 8.56799 20.0278L6.95679 18.1868C6.94452 17.9942 6.93332 17.8001 6.93332 17.6001C6.93225 15.7614 7.49373 13.9664 8.54239 12.4561ZM11.7333 30.9334H7.46665V29.5468C7.46536 28.9403 7.25855 28.3523 6.87999 27.8785L1.41705 21.1265C1.16243 20.8089 1.03896 20.4059 1.07199 20.0001L1.71199 11.8982C1.72635 11.7068 1.8131 11.5281 1.95459 11.3984C2.09608 11.2687 2.28166 11.1978 2.47359 11.2001C2.49705 11.2001 2.52052 11.2001 2.54452 11.2033C2.73223 11.2317 2.90397 11.3252 3.02966 11.4674C3.15536 11.6097 3.22698 11.7917 3.23199 11.9814L3.64692 17.0065C3.5177 17.0874 3.39785 17.1824 3.28959 17.2897C2.92349 17.6567 2.71116 18.1494 2.6959 18.6676C2.68064 19.1857 2.86359 19.6901 3.20745 20.078L6.53492 23.8214C6.5815 23.8738 6.63793 23.9165 6.70099 23.947C6.76406 23.9775 6.83252 23.9954 6.90247 23.9995C6.97243 24.0035 7.0425 23.9938 7.10869 23.9708C7.17489 23.9478 7.2359 23.912 7.28825 23.8654C7.34061 23.8189 7.38328 23.7624 7.41382 23.6994C7.44436 23.6363 7.46219 23.5678 7.46627 23.4979C7.47036 23.4279 7.46063 23.3579 7.43763 23.2917C7.41464 23.2255 7.37883 23.1645 7.33225 23.1121L4.00479 19.3692C3.90106 19.2515 3.82747 19.1104 3.79037 18.958C3.75327 18.8056 3.75376 18.6464 3.79181 18.4943C3.82985 18.3421 3.90431 18.2014 4.00877 18.0844C4.11322 17.9674 4.24455 17.8775 4.39145 17.8225C4.57499 17.7536 4.77522 17.7425 4.96525 17.7907C5.15527 17.839 5.32597 17.9442 5.45439 18.0924L11.2053 24.6641C11.5457 25.053 11.7333 25.5521 11.7333 26.0689V30.9334ZM12.8 26.071C12.7967 25.6327 12.7032 25.1997 12.5253 24.799L13.272 23.8689C13.3706 23.7433 13.4966 23.6419 13.6403 23.5722C13.784 23.5025 13.9416 23.4665 14.1013 23.4668H15.3227C15.658 23.4648 15.9863 23.5638 16.2645 23.751L16.7413 24.0684C17.1952 24.3738 17.7303 24.5358 18.2773 24.5334C18.6912 24.5351 19.09 24.6893 19.3973 24.9665C19.2673 25.3195 19.2005 25.6927 19.2 26.0689C17.1375 26.8456 14.863 26.8464 12.8 26.071ZM27.2704 17.7601C27.3859 17.7601 27.5004 17.7809 27.6085 17.8214C27.7554 17.8764 27.8868 17.9663 27.9912 18.0833C28.0957 18.2004 28.1701 18.341 28.2082 18.4932C28.2462 18.6454 28.2467 18.8045 28.2096 18.9569C28.1725 19.1093 28.0989 19.2504 27.9952 19.3681L24.6677 23.111C24.5737 23.2168 24.5254 23.3555 24.5337 23.4968C24.542 23.6381 24.606 23.7703 24.7117 23.8644C24.8175 23.9584 24.9562 24.0066 25.0975 23.9984C25.2388 23.9901 25.371 23.9261 25.4651 23.8204L28.7925 20.0769C28.9896 19.8565 29.1361 19.5957 29.2217 19.3127C29.3073 19.0298 29.33 18.7315 29.2881 18.4388C29.2462 18.1462 29.1408 17.8662 28.9793 17.6186C28.8178 17.371 28.604 17.1617 28.3531 17.0054L28.7685 11.9745C28.7744 11.7857 28.8465 11.605 28.972 11.4638C29.0975 11.3227 29.2686 11.2301 29.4555 11.2022C29.5557 11.192 29.657 11.202 29.7534 11.2315C29.8497 11.261 29.9392 11.3095 30.0166 11.3741C30.094 11.4387 30.1576 11.5181 30.2039 11.6077C30.2501 11.6972 30.278 11.7951 30.2859 11.8956L30.928 20.0001C30.9611 20.4048 30.8383 20.8068 30.5845 21.1238L25.12 27.8828C24.742 28.3552 24.5352 28.9417 24.5333 29.5468V30.9334H20.2667V26.0689C20.2667 25.5521 20.4543 25.053 20.7947 24.6641L26.5456 18.0908C26.6357 17.987 26.747 17.9037 26.8721 17.8467C26.9971 17.7897 27.1329 17.7601 27.2704 17.7601ZM25.0432 18.1868L19.992 23.9612C19.9717 23.9846 19.9573 24.0118 19.9387 24.0358C19.4625 23.6686 18.8786 23.4686 18.2773 23.4668C17.9419 23.4688 17.6137 23.3697 17.3355 23.1825L16.8587 22.8652C16.4048 22.5598 15.8697 22.3977 15.3227 22.4001H14.1013C13.7815 22.3987 13.4655 22.4699 13.1772 22.6085C12.889 22.7471 12.636 22.9494 12.4373 23.2001L11.9141 23.8518L9.59999 21.2092V20.4428C9.59999 20.0966 9.71227 19.7597 9.91999 19.4828L10.6667 18.4892C11.0128 18.0276 11.2 17.4662 11.2 16.8892V15.1094C11.2 14.5324 11.0128 13.971 10.6667 13.5094L9.22665 11.5926C10.5752 10.0691 12.3976 9.04424 14.4 8.6833V9.06677C14.4 9.49112 14.5686 9.89808 14.8686 10.1981C15.1687 10.4982 15.5756 10.6668 16 10.6668H16.4736C16.6145 10.661 16.7527 10.7071 16.862 10.7964C16.9713 10.8856 17.0441 11.0118 17.0667 11.151C17.0711 11.2252 17.0601 11.2994 17.0344 11.3691C17.0087 11.4387 16.9688 11.5023 16.9173 11.5558C16.869 11.6103 16.8099 11.6542 16.7439 11.6847C16.6778 11.7153 16.6061 11.7319 16.5333 11.7334C15.6846 11.7334 14.8707 12.0706 14.2706 12.6707C13.6705 13.2708 13.3333 14.0847 13.3333 14.9334C13.3333 15.7821 13.6705 16.5961 14.2706 17.1962C14.8707 17.7963 15.6846 18.1334 16.5333 18.1334H17.0667C17.2081 18.1334 17.3438 18.1896 17.4438 18.2896C17.5438 18.3897 17.6 18.5253 17.6 18.6668V20.8364C17.5939 21.178 17.7013 21.5121 17.9056 21.786C18.1099 22.06 18.3993 22.2583 18.7285 22.35C18.8576 22.3834 18.9904 22.4005 19.1237 22.4006C19.4056 22.4013 19.6821 22.3231 19.9218 22.1747C20.1615 22.0263 20.3549 21.8138 20.48 21.5612L24.2885 13.9446C24.8006 15.0953 25.0657 16.3406 25.0667 17.6001C25.0667 17.8001 25.0555 17.9942 25.0432 18.1868ZM23.6736 12.7932L19.528 21.0844C19.4797 21.1789 19.4002 21.2537 19.303 21.2962C19.2057 21.3387 19.0968 21.3462 18.9947 21.3174C18.8953 21.2838 18.8095 21.2188 18.7503 21.1323C18.691 21.0457 18.6615 20.9422 18.6661 20.8374V18.6668C18.6661 18.2424 18.4975 17.8355 18.1975 17.5354C17.8974 17.2353 17.4905 17.0668 17.0661 17.0668H16.5333C15.9698 17.0593 15.4315 16.8322 15.0331 16.4337C14.6346 16.0352 14.4074 15.4969 14.4 14.9334C14.4135 14.3719 14.6426 13.8371 15.0398 13.4399C15.437 13.0427 15.9718 12.8136 16.5333 12.8001C16.754 12.7964 16.9717 12.7477 17.173 12.6571C17.3743 12.5665 17.555 12.4359 17.7042 12.2731C17.8534 12.1104 17.9678 11.919 18.0406 11.7106C18.1134 11.5022 18.1429 11.2811 18.1275 11.0609C18.0827 10.6554 17.8885 10.2811 17.5827 10.011C17.2769 9.74096 16.8815 9.59446 16.4736 9.6001H16C15.8585 9.6001 15.7229 9.54391 15.6229 9.44389C15.5228 9.34387 15.4667 9.20822 15.4667 9.06677V8.56064C15.6443 8.54997 15.8197 8.53344 16 8.53344C17.5352 8.53514 19.0448 8.92694 20.387 9.67205C21.7293 10.4172 22.8602 11.4911 23.6736 12.7932ZM13.5317 4.30464C13.4003 4.25202 13.2534 4.25375 13.1233 4.30947C12.9931 4.36518 12.8905 4.4703 12.8379 4.6017C12.7852 4.73311 12.787 4.88004 12.8427 5.01016C12.8984 5.14029 13.0035 5.24295 13.1349 5.29557C13.3063 5.36933 13.4733 5.45284 13.6352 5.5457C13.5021 5.62694 13.3607 5.69363 13.2133 5.74464C12.9268 5.84368 12.6231 5.88378 12.3207 5.86251C12.0182 5.84125 11.7232 5.75907 11.4533 5.6209C10.6453 5.1985 10.0336 4.70144 9.67519 2.3553C10.2881 2.58923 10.9492 2.66819 11.6 2.58517C12.2298 2.5002 12.8708 2.59024 13.4528 2.84544C13.6466 2.92906 13.8216 3.05075 13.9674 3.20329C14.1133 3.35583 14.227 3.53611 14.3019 3.73344C14.4196 4.04896 14.4282 4.39483 14.3264 4.71584C14.072 4.55941 13.8064 4.42197 13.5317 4.30464Z" fill="#0C0C1D"/>
</g>
<defs>
<clipPath id="clip0_37_233">
<rect width="32" height="32" fill="white"/>
</clipPath>
</defs>
</svg>
